<?xml version="1.0"?>
<svg version="1.1" xmlns="http://www.w3.org/2000/svg" width="400" height="200" style=""><path fill="#c73255" d="M30.848,136.176q0-1.568,6.44-12.152q-4.592,0-6.104,0.392q-2.52,0.616-3.752,2.52q-0.448,0.616-0.756,0.672t-0.308-0.252t0.224-0.532q2.128-2.856,4.2-3.92t6.552-1.064l1.344,0q3.416-5.208,9.576-15.456q2.296-4.312,2.296-7q0-4.312-5.264-4.368l-0.616,0q-7.168,0-13.048,3.584t-9.296,8.904t-3.416,9.576q0,5.208,4.872,5.208q3.864,0,6.608-3.416t2.744-6.496q0-1.736-0.896-2.856q-0.112-0.112-0.112-0.28q0-0.392,0.448-0.392q0.224,0,0.336,0.168q1.12,1.456,1.12,3.472q0,3.416-2.8,6.972t-5.88,3.948q-0.952,0.168-1.848,0.168q-3.584,0-5.544-2.296q-1.904-2.072-1.904-5.6q0-1.456,0.336-2.968q1.68-7.56,9.716-13.216t18.06-5.656q3.864,0,6.636,1.652t2.772,4.62t-2.072,6.272l-10.136,15.568q1.792,0.056,6.412,0.532t6.944,0.476t3.108-0.056l2.128-3.528q5.432-9.128,12.572-17.052t12.46-9.828q0.168-0.056,0.336-0.056q0.392,0,0.392,0.448q0,0.168-0.168,0.28q-3.584,2.016-10.276,9.772t-11.564,15.932l-2.184,3.696q2.576-0.336,3.696-1.288q0.224-0.168,0.392,0.196t-0.056,0.532q-1.68,1.288-4.76,1.848q-3.92,7.28-3.92,10.248q0,1.904,1.624,1.904q1.12,0,2.604-0.756t1.988-1.288t0.616-0.532t0.056,0.364t-0.224,0.588q-0.952,0.896-2.856,1.904t-3.08,1.008t-1.736-0.392q-1.792-1.176-1.792-4.088t2.968-8.512q-2.072,0.168-3.864,0.168q-0.616,0-13.16-0.392q-3.976,6.272-6.384,11.424q-0.728,1.512-1.764,1.512t-1.036-0.84z M89.32152,116.856l0.784-0.168q0.616,0,1.176,0.504t0.56,0.784t-3.472,5.404t-3.472,7.14q0,0.168,0.056,0.336q0.28,1.288,1.232,1.288q2.912,0,10.64-9.632q0.168-0.224,0.392-0.224t0.224,0.42t-0.504,1.092q-7.168,9.576-10.92,9.576q-0.504,0-0.952-0.168q-2.464-0.952-2.464-3.696q0-0.952,0.224-1.904l-3.472,3.36q-3.304,2.912-4.788,2.912t-2.828-0.952q-1.512-1.12-1.512-2.968q0-4.088,5.712-9.772t10.472-5.684q1.848,0,2.464,1.288q0.168,0.448,0.28,0.756t0.168,0.308z M72.57752,130.632q0,2.016,1.4,2.016q3.248,0,8.848-7.112l5.936-8.176q-0.448-0.784-1.456-0.784q-3.416,0-9.072,5.292t-5.656,8.764z M107.69904,133.88q-4.2,0-4.2-4.648q0-2.352,1.232-5.152t2.688-4.704q-0.28,0.056-0.728,0.056q-1.344,0-2.24-1.904l-4.144,5.376q-3.472,4.312-4.032,4.312q-0.28,0-0.28-0.224q0-0.56,0.952-1.624q4.872-5.656,6.888-9.576q1.288-4.872,3.248-4.872q1.288,0,1.288,1.12t-1.4,2.856l-1.344,1.792q0,1.176,1.736,1.176q1.008,0,2.24-0.728l1.456-0.896q0.112-0.056,0.56-0.056t0.952,0.56t0.336,1.008l-3.864,4.872q-3.584,4.592-3.584,7.252t2.464,2.66q2.576,0,6.328-2.744q2.24-1.624,4.088-3.64q1.736-2.016,1.904-2.016q0.392,0,0.392,0.42t-0.504,0.98l-1.792,2.016q-1.512,1.568-3.36,3.024q-4.424,3.304-7.28,3.304z M134.56056,111.284q0.756,0.532,0.756,1.26t-0.7,1.26t-1.54,0.532t-1.54-0.616t-0.7-1.4q0-1.568,2.128-1.568q0.84,0,1.596,0.532z M122.82856,134.216q-2.856,0-2.856-3.696q0-3.024,3.304-8.372t5.32-5.404q0.56,0,1.26,0.448t0.7,0.896q-0.28,0.392-0.672,0.868t-0.84,1.036t-1.232,1.596t-1.512,1.988q-4.2,5.432-4.2,7.476t1.4,2.044q1.176,0,3.192-1.288q4.704-2.912,7.448-6.384q1.008-1.288,1.372-1.288t0.364,0.448t-1.288,1.792t-2.044,2.128t-1.036,1.036t-1.036,0.952t-1.148,0.98t-1.12,0.84t-1.288,0.812t-1.288,0.588q-1.176,0.504-2.8,0.504z M146.24608,132.76q-1.624,0.952-4.004,0.952t-3.64-1.568t-2.156-4.984q-1.008,1.008-1.4,1.008q-0.28,0-0.28-0.392t0.28-0.672q1.848-2.296,6.272-6.608l7.056-6.608q3.024-2.856,3.584-2.856q1.792,0,1.792,1.344q0,0.672-0.532,1.316t-0.784,1.008t-0.532,0.7q-1.008,1.736-2.044,7.168t-1.596,7.56q4.648-0.056,9.576-6.048q0.56-0.56,0.84-0.56t0.28,0.364t-0.504,0.98q-3.248,3.808-6.048,5.32q-1.68,0.84-4.368,1.4z M138.68608,126.544q0,1.904,1.26,3.108t2.828,1.204t2.408-0.616q1.12-0.616,2.212-5.152t1.316-8.008l0.224-1.904q-3.08,2.296-6.58,5.936t-3.612,4.816q-0.056,0.336-0.056,0.616z M171.7916,133.376q-3.304,0-3.304-3.864q0-2.184,1.54-4.844t3.78-6.244q-7.168,3.584-12.992,10.584q-3.248,4.872-3.808,4.872q-1.624,0-1.624-0.952q0-0.504,0.672-1.792q5.432-9.688,8.232-14.168q6.664-10.696,9.408-11.592q0.112-0.056,0.224-0.056q0.728,0,1.008,1.176q-0.168,1.176-5.824,8.512q-5.88,7.448-6.664,9.744q2.072-1.512,7.224-5.096q5.544-3.864,7.336-3.864t1.792,1.4q0,0.224-0.028,0.308t-3.892,5.292t-3.864,7.672q0,1.288,0.952,1.288q3.024-0.112,9.072-7.28q0.504-0.504,0.756-0.504t0.252,0.336q0,1.12-5.544,6.048q-3.472,3.024-4.704,3.024z M242.20264,94.568q1.176,0,1.176,0.84q0,3.416-9.408,19.544q0.392,1.512,1.232,3.528l16.688-12.712q9.576-7.28,12.936-9.352q7.504-4.48,14.728-4.48q2.072,0,3.808,0.672q1.064,0.392,1.064,1.456t-0.56,1.064q-0.336,0-0.7-0.448t-2.128-0.448t-5.74,0.896q-6.272,1.4-14.224,6.272q-4.984,3.08-13.328,9.464t-12.04,8.792q2.856,5.992,7.336,11.144q6.888,8.008,12.376,8.008q2.688,0,2.688-2.072q0-0.392-0.084-0.784t0.196-0.952t0.672-0.56q0.728,0,0.952,1.736q0.056,0.28,0.056,0.56q0,1.792-1.82,2.94t-4.312,1.148t-4.172-0.784q-4.424-2.184-8.932-7.672t-6.916-11.536q-3.08,1.792-5.096,1.96q-3.752,4.872-9.24,9.464q-2.968,2.52-6.44,4.06t-6.664,1.54q-4.536,0-7-2.268t-2.464-6.916q0-2.296,0.896-4.256q2.856-6.328,8.624-8.736q3.192-1.4,6.356-1.4t4.228,2.072q0.392,0.728,0.392,1.54t-0.224,1.036t-0.616-0.392q-1.344-2.464-2.856-2.744q-1.008-0.112-1.456-0.112q-4.368,0-8.176,3.64q-4.928,4.76-4.928,10.304q0,6.048,6.832,6.832l0.448,0q2.464,0,6.328-2.184q6.272-3.584,13.384-12.32q-1.288-1.176-1.288-3.472t1.708-4.34t4.676-2.044q0.84,0,1.568,0.168q2.8-4.704,5.432-10.164t2.632-6.3q0-0.112-0.336-0.112t-3.892,1.764t-5.068,2.772t-3.696,3.164t-2.184,3.5q0,0.616,0.868,1.232t3.164,0.616q0.28,0.112,0.28,0.308t-1.54,0.448t-2.436,0.252q-2.016,0-2.016-1.68q0-1.96,2.408-4.704t5.264-4.312q8.344-4.48,10.584-4.48z M233.29864,119.656q-0.448-1.12-0.728-2.24q-1.12,1.624-2.24,3.192q0.56,0,1.008-0.084t1.96-0.868z M231.17064,114.84q-0.672-0.28-1.484-0.28t-1.624,1.008t-0.812,2.156t0.616,1.932q2.744-3.92,3.304-4.816z M269.09216,116.856l0.784-0.168q0.616,0,1.176,0.504t0.56,0.784t-3.472,5.404t-3.472,7.14q0,0.168,0.056,0.336q0.28,1.288,1.232,1.288q2.912,0,10.64-9.632q0.168-0.224,0.392-0.224t0.224,0.42t-0.504,1.092q-7.168,9.576-10.92,9.576q-0.504,0-0.952-0.168q-2.464-0.952-2.464-3.696q0-0.952,0.224-1.904l-3.472,3.36q-3.304,2.912-4.788,2.912t-2.828-0.952q-1.512-1.12-1.512-2.968q0-4.088,5.712-9.772t10.472-5.684q1.848,0,2.464,1.288q0.168,0.448,0.28,0.756t0.168,0.308z M252.34816,130.632q0,2.016,1.4,2.016q3.248,0,8.848-7.112l5.936-8.176q-0.448-0.784-1.456-0.784q-3.416,0-9.072,5.292t-5.656,8.764z M280.07768,132.48q1.848,0,4.76-1.96t5.656-5.32q0.672-0.896,1.064-0.896t0.392,0.336t-2.296,2.912q-5.6,6.16-9.352,6.16q-1.848,0-3.136-0.868t-1.288-2.688t0.952-4.228q1.624-3.808,5.208-9.576q6.552-10.64,9.296-10.64q0.56,0,1.148,0.42t0.644,0.924q-1.288,1.736-4.956,6.664t-5.068,7.084t-2.1,3.22t-1.036,1.652t-0.784,1.54q-0.952,1.904-0.952,3.584t1.848,1.68z M288.9912,140.096q2.688,3.36,4.648,3.36q3.192,0,6.888-5.096q2.688-3.752,5.264-9.464l2.128-5.152l-8.232,6.44q-3.808,2.968-6.104,2.968q-1.232,0-1.96-0.84t-0.728-1.904q0-2.408,4.144-7.924t6.048-5.516t1.904,1.288q0,0.504-4.956,5.796t-4.956,7.14q0,0.728,0.952,0.728q1.792,0,7.196-4.2t8.148-6.944q0.616-0.728,1.736-2.184q1.064-1.232,2.352-1.232t1.288,1.232q0,0.224-2.52,3.976t-2.632,3.976q-1.736,3.36-5.32,9.8q-5.432,8.736-10.864,8.736q-1.792,0-3.136-1.54t-1.288-3.444z M333.91272,116.856l0.784-0.168q0.616,0,1.176,0.504t0.56,0.784t-3.472,5.404t-3.472,7.14q0,0.168,0.056,0.336q0.28,1.288,1.232,1.288q2.912,0,10.64-9.632q0.168-0.224,0.392-0.224t0.224,0.42t-0.504,1.092q-7.168,9.576-10.92,9.576q-0.504,0-0.952-0.168q-2.464-0.952-2.464-3.696q0-0.952,0.224-1.904l-3.472,3.36q-3.304,2.912-4.788,2.912t-2.828-0.952q-1.512-1.12-1.512-2.968q0-4.088,5.712-9.772t10.472-5.684q1.848,0,2.464,1.288q0.168,0.448,0.28,0.756t0.168,0.308z M317.16872,130.632q0,2.016,1.4,2.016q3.248,0,8.848-7.112l5.936-8.176q-0.448-0.784-1.456-0.784q-3.416,0-9.072,5.292t-5.656,8.764z"/><path fill="#" d=""/></svg>
